<?xml version="1.0" encoding="UTF-8"?>
<svg version="1.1" xmlns="http://www.w3.org/2000/svg" width="239" height="54">
<path d="M0 0 C3.63 0 7.26 0 11 0 C11 0.66 11 1.32 11 2 C11.66 2.33 12.32 2.66 13 3 C13 2.34 13 1.68 13 1 C15 1 15 1 16.625 2.5 C17.305625 3.2425 17.305625 3.2425 18 4 C18 3.01 18 2.02 18 1 C20.31 1.33 22.62 1.66 25 2 C25.14910645 7.407594 25.25756999 12.81397356 25.32958984 18.22314453 C25.35963253 20.06027082 25.40048019 21.89725522 25.45263672 23.73388672 C25.52601145 26.38544824 25.55957987 29.03510316 25.5859375 31.6875 C25.61690521 32.49928711 25.64787292 33.31107422 25.67977905 34.14746094 C25.68355164 40.64235202 23.38710915 44.31288297 19 49 C13.91565952 53.61137857 8.63880857 54.06794102 2 54 C-5.03130345 52.92742829 -10.73739311 49.06546739 -14.9375 43.375 C-17.05339852 38.64534449 -17.13428465 34.30328103 -17.09765625 29.171875 C-17.0962413 28.42286926 -17.09482635 27.67386353 -17.09336853 26.90216064 C-17.08778659 24.51806588 -17.07523745 22.13406622 -17.0625 19.75 C-17.05748266 18.13020969 -17.05292016 16.51041791 -17.04882812 14.890625 C-17.03782308 10.92704688 -17.02057091 6.96353955 -17 3 C-13.38026598 1.68373308 -10.90432869 1 -7 1 C-7 1.66 -7 2.32 -7 3 C-6.34 2.34 -5.68 1.68 -5 1 C-4.01 1 -3.02 1 -2 1 C-2 1.66 -2 2.32 -2 3 C-1.34 2.67 -0.68 2.34 0 2 C0 1.34 0 0.68 0 0 Z " fill="#B2D554" transform="translate(17,0)"/>
<path d="M0 0 C5.32017615 -0.09906509 10.63981247 -0.17156072 15.96069336 -0.21972656 C17.7697078 -0.23981053 19.57865757 -0.26708341 21.38745117 -0.30175781 C23.99153621 -0.35041892 26.59476115 -0.37300051 29.19921875 -0.390625 C30.40731453 -0.42159271 30.40731453 -0.42159271 31.63981628 -0.45318604 C35.60002103 -0.45475949 37.55480802 -0.27240024 41.01489258 1.84472656 C43 4 43 4 43.5625 6.875 C42.84944181 10.83643439 41.59491415 12.92707534 39 16 C35.75 17.875 35.75 17.875 33 19 C33.66 21.97 34.32 24.94 35 28 C36.32 27.34 37.64 26.68 39 26 C39.74664647 23.02019764 39.74664647 23.02019764 40 20 C40.33 19.34 40.66 18.68 41 18 C42.32 18 43.64 18 45 18 C45.24621094 17.30390625 45.49242187 16.6078125 45.74609375 15.890625 C47.19205635 12.55725327 49.02308898 9.75544782 51.0625 6.75 C52.13177734 5.16445312 52.13177734 5.16445312 53.22265625 3.546875 C55 1 55 1 56 0 C57.85287502 -0.07226502 59.70833878 -0.0838122 61.5625 -0.0625 C62.57441406 -0.05347656 63.58632812 -0.04445313 64.62890625 -0.03515625 C65.41136719 -0.02355469 66.19382812 -0.01195312 67 0 C68.34106405 2.6821281 68.21450419 4.88398032 68.31640625 7.8828125 C68.35830078 9.04941406 68.40019531 10.21601563 68.44335938 11.41796875 C68.48267578 12.64128906 68.52199219 13.86460938 68.5625 15.125 C68.60568359 16.35605469 68.64886719 17.58710938 68.69335938 18.85546875 C68.79968704 21.90352853 68.90171781 24.9516719 69 28 C69.66 28 70.32 28 71 28 C71 28.66 71 29.32 71 30 C67.37 30 63.74 30 60 30 C60 28.35 60 26.7 60 25 C56.37 25 52.74 25 49 25 C48.34 26.65 47.68 28.3 47 30 C40.4 30 33.8 30 27 30 C26.34 28.02 25.68 26.04 25 24 C24.01 25.98 23.02 27.96 22 30 C12.1 30 2.2 30 -8 30 C-7.34 26.7 -6.68 23.4 -6 20 C-6.33 18.35 -6.66 16.7 -7 15 C-6.02269781 12.29362471 -5.59487555 11.29743778 -3 10 C-2.08968728 7.65613191 -2.08968728 7.65613191 -1.375 4.9375 C-1.11460938 4.01839844 -0.85421875 3.09929688 -0.5859375 2.15234375 C-0.39257812 1.44207031 -0.19921875 0.73179687 0 0 Z M28 7 C27.67 9.31 27.34 11.62 27 14 C29.50965614 13.29660434 29.50965614 13.29660434 32 12 C32.88693303 9.95894361 32.88693303 9.95894361 33 8 C31.35 7.67 29.7 7.34 28 7 Z M18 7 C14.37 7.33 10.74 7.66 7 8 C7 8.99 7 9.98 7 11 C9.97 11 12.94 11 16 11 C15.34 13.31 14.68 15.62 14 18 C10.7 18.33 7.4 18.66 4 19 C4 20.32 4 21.64 4 23 C4.969375 23.45375 5.93875 23.9075 6.9375 24.375 C10 26 10 26 11 28 C11.99 28 12.98 28 14 28 C14.86458312 25.06520402 15.71697187 22.12778481 16.5625 19.1875 C16.80935547 18.35412109 17.05621094 17.52074219 17.31054688 16.66210938 C17.53935547 15.85966797 17.76816406 15.05722656 18.00390625 14.23046875 C18.21861572 13.49207764 18.4333252 12.75368652 18.65454102 11.99291992 C19.19661992 9.80050536 19.19661992 9.80050536 18 7 Z M58 10 C56.68 12.64 55.36 15.28 54 18 C55.98 18 57.96 18 60 18 C59.67 15.36 59.34 12.72 59 10 C58.67 10 58.34 10 58 10 Z " fill="#0056A1" transform="translate(58,6)"/>
<path d="M0 0 C1.05896484 -0.00773438 2.11792969 -0.01546875 3.20898438 -0.0234375 C8.88391872 -0.00927672 13.70865812 0.33084188 19.0625 2.25 C19.65833479 32.04173933 19.65833479 32.04173933 11.0625 41.25 C7.77273192 42.34658936 6.34946233 42.04953138 3.0625 41.25 C4.238125 40.38375 4.238125 40.38375 5.4375 39.5 C7.88962105 37.39818196 9.00385645 36.23345001 10.0625 33.25 C10.0625 32.26 10.0625 31.27 10.0625 30.25 C9.4025 31.57 8.7425 32.89 8.0625 34.25 C7.0725 34.25 6.0825 34.25 5.0625 34.25 C4.7325 33.59 4.4025 32.93 4.0625 32.25 C3.0725 32.25 2.0825 32.25 1.0625 32.25 C0.7325 30.27 0.4025 28.29 0.0625 26.25 C5.3425 26.25 10.6225 26.25 16.0625 26.25 C14.80708443 23.73916886 13.56186512 23.37874554 11.0625 22.25 C11.7225 22.25 12.3825 22.25 13.0625 22.25 C13.0625 18.62 13.0625 14.99 13.0625 11.25 C11.4125 11.25 9.7625 11.25 8.0625 11.25 C7.4025 12.9 6.7425 14.55 6.0625 16.25 C4.0625 15.25 4.0625 15.25 3.0625 12.25 C-3.8675 11.755 -3.8675 11.755 -10.9375 11.25 C-11.246875 12.69375 -11.55625 14.1375 -11.875 15.625 C-12.39233647 18.03923686 -12.83235234 20.03970467 -13.9375 22.25 C-10.6375 22.25 -7.3375 22.25 -3.9375 22.25 C-3.9375 22.91 -3.9375 23.57 -3.9375 24.25 C-7.5675 24.25 -11.1975 24.25 -14.9375 24.25 C-14.9375 24.91 -14.9375 25.57 -14.9375 26.25 C-10.6475 26.25 -6.3575 26.25 -1.9375 26.25 C-2.5975 28.89 -3.2575 31.53 -3.9375 34.25 C-5.2575 33.92 -6.5775 33.59 -7.9375 33.25 C-7.39523019 37.04588866 -5.73622437 38.72211993 -2.9375 41.25 C-6.1875 41.5625 -6.1875 41.5625 -9.9375 41.25 C-12.1875 39.125 -12.1875 39.125 -13.9375 36.25 C-14.494375 35.38375 -15.05125 34.5175 -15.625 33.625 C-19.37305818 23.98713611 -18.04515366 12.45317424 -17.9375 2.25 C-12.05672036 -0.3183821 -6.29190322 -0.04578705 0 0 Z " fill="#FAFAF4" transform="translate(20.9375,5.75)"/>
<path d="M0 0 C0.763125 0.33 1.52625 0.66 2.3125 1 C5.41533309 2.15454254 6.86133957 1.8482866 10 1 C12 1 14 1 16 1 C16.495 1.99 16.495 1.99 17 3 C17.33 2.34 17.66 1.68 18 1 C18.721875 1.185625 19.44375 1.37125 20.1875 1.5625 C23.12826973 2.01995307 25.14103058 1.73516357 28 1 C28 3.31 28 5.62 28 8 C29.32 8 30.64 8 32 8 C32 8.99 32 9.98 32 11 C28.37 11 24.74 11 21 11 C21 10.34 21 9.68 21 9 C20.34 9 19.68 9 19 9 C19 9.66 19 10.32 19 11 C10 11 1 11 -8 11 C-8 8.69 -8 6.38 -8 4 C-8.66 4 -9.32 4 -10 4 C-10 6.31 -10 8.62 -10 11 C-10.99 11 -11.98 11 -13 11 C-13 8.69 -13 6.38 -13 4 C-13.99 4 -14.98 4 -16 4 C-15.34 6.31 -14.68 8.62 -14 11 C-15.32 11 -16.64 11 -18 11 C-18 10.34 -18 9.68 -18 9 C-18.99 9.66 -19.98 10.32 -21 11 C-24.5625 11.125 -24.5625 11.125 -28 11 C-28.66 11 -29.32 11 -30 11 C-33.66666667 11 -37.33333333 11 -41 11 C-41 7.7 -41 4.4 -41 1 C-39.02 1 -37.04 1 -35 1 C-34.67 2.65 -34.34 4.3 -34 6 C-33.67 4.35 -33.34 2.7 -33 1 C-31.68 1 -30.36 1 -29 1 C-28.67 1.66 -28.34 2.32 -28 3 C-27.67 2.34 -27.34 1.68 -27 1 C-26.01 1 -25.02 1 -24 1 C-23.67 1.99 -23.34 2.98 -23 4 C-22.34 3.01 -21.68 2.02 -21 1 C-18.09049638 0.77823905 -15.40044503 0.71962861 -12.5 0.8125 C-11.32244141 0.83280273 -11.32244141 0.83280273 -10.12109375 0.85351562 C-8.08047593 0.89026775 -6.04018087 0.94401943 -4 1 C-1.9254644 1.1490712 -1.9254644 1.1490712 0 0 Z M0 4 C0 5.32 0 6.64 0 8 C0.66 8 1.32 8 2 8 C2.33 7.01 2.66 6.02 3 5 C2.01 4.67 1.02 4.34 0 4 Z M24 5 C25 8 25 8 25 8 Z M9 7 C10 9 10 9 10 9 Z " fill="#000000" transform="translate(207,9)"/>
<path d="M0 0 C2.26979665 -0.10794277 4.54105196 -0.18556176 6.8125 -0.25 C8.07707031 -0.29640625 9.34164063 -0.3428125 10.64453125 -0.390625 C14 0 14 0 15.94921875 2.015625 C16.29597656 2.67046875 16.64273437 3.3253125 17 4 C17.66 2.68 18.32 1.36 19 0 C20.65 0 22.3 0 24 0 C23.96519531 0.77085938 23.93039063 1.54171875 23.89453125 2.3359375 C23.86746094 3.33882812 23.84039062 4.34171875 23.8125 5.375 C23.77769531 6.37273438 23.74289063 7.37046875 23.70703125 8.3984375 C23.85205078 9.68621094 23.85205078 9.68621094 24 11 C24.99 11.66 25.98 12.32 27 13 C27 13.66 27 14.32 27 15 C21.47032059 15.71033431 16.50016964 16.30267176 11 15 C11 15.66 11 16.32 11 17 C11.66 17.33 12.32 17.66 13 18 C12.67 18.99 12.34 19.98 12 21 C12.99 21 13.98 21 15 21 C15.33 19.68 15.66 18.36 16 17 C16.36637589 23.35051546 16.36637589 23.35051546 14.625 26.4375 C13 28 13 28 11 28 C8.875 26.4375 8.875 26.4375 7 24 C6.6875 20.3125 6.6875 20.3125 7 17 C7.33 16.67 7.66 16.34 8 16 C4.04 15.67 0.08 15.34 -4 15 C-4 14.34 -4 13.68 -4 13 C-0.37 13 3.26 13 7 13 C7 12.34 7 11.68 7 11 C3.7 11 0.4 11 -3 11 C-2.5251065 6.88425629 -1.9789756 3.63616656 0 0 Z " fill="#EEF0F3" transform="translate(10,17)"/>
<path d="M0 0 C2.5 0.375 2.5 0.375 5 1 C6.99203598 1.088643 6.99203598 1.088643 8.8125 0.5 C11.26502616 -0.06057741 13.49237135 -0.06965635 16 0 C16.33 1.32 16.66 2.64 17 4 C17.66 2.68 18.32 1.36 19 0 C20.32 0.66 21.64 1.32 23 2 C23.99 1.34 24.98 0.68 26 0 C28.6875 0.375 28.6875 0.375 31 1 C31 1.66 31 2.32 31 3 C31.556875 2.484375 32.11375 1.96875 32.6875 1.4375 C35 0 35 0 37.625 0.3125 C38.40875 0.539375 39.1925 0.76625 40 1 C40.66 1 41.32 1 42 1 C43.32 1 44.64 1 46 1 C46 2.98 46 4.96 46 7 C46.99 7.33 47.98 7.66 49 8 C49 8.99 49 9.98 49 11 C38.73417722 11 38.73417722 11 34.875 10.4375 C33.59625 10.293125 32.3175 10.14875 31 10 C30.67 10.33 30.34 10.66 30 11 C28.9275 10.835 27.855 10.67 26.75 10.5 C23.21102766 10.02813702 21.39905665 10.30496901 18 11 C16.12603263 11.0656151 14.24997167 11.08574345 12.375 11.0625 C11.43398437 11.05347656 10.49296875 11.04445313 9.5234375 11.03515625 C8.69070312 11.02355469 7.85796875 11.01195312 7 11 C6.01 11 5.02 11 4 11 C2 11 0 11 -2 11 C-2.05399736 9.54207116 -2.09279177 8.08357288 -2.125 6.625 C-2.15980469 5.40683594 -2.15980469 5.40683594 -2.1953125 4.1640625 C-2 2 -2 2 0 0 Z M3 4 C3.66 4.66 4.32 5.32 5 6 C5 5.34 5 4.68 5 4 C4.34 4 3.68 4 3 4 Z M9 4 C9 5.32 9 6.64 9 8 C10.32 7.67 11.64 7.34 13 7 C13 6.01 13 5.02 13 4 C11.68 4 10.36 4 9 4 Z M26 4 C26.33 5.32 26.66 6.64 27 8 C27.33 6.68 27.66 5.36 28 4 C27.34 4 26.68 4 26 4 Z M36 4 C35.67 4.99 35.34 5.98 35 7 C35.99 7.33 36.98 7.66 38 8 C38 6.68 38 5.36 38 4 C37.34 4 36.68 4 36 4 Z " fill="#000000" transform="translate(139,24)"/>
<path d="M0 0 C1.05896484 -0.00773438 2.11792969 -0.01546875 3.20898438 -0.0234375 C8.88391872 -0.00927672 13.70865812 0.33084188 19.0625 2.25 C19.24701025 21.25455581 19.24701025 21.25455581 18.0625 29.25 C17.7325 29.25 17.4025 29.25 17.0625 29.25 C17.0625 22.98 17.0625 16.71 17.0625 10.25 C6.1725 10.25 -4.7175 10.25 -15.9375 10.25 C-15.9375 16.85 -15.9375 23.45 -15.9375 30.25 C-16.2675 30.25 -16.5975 30.25 -16.9375 30.25 C-18.06748844 20.90741704 -18.03658936 11.64146903 -17.9375 2.25 C-12.05672036 -0.3183821 -6.29190322 -0.04578705 0 0 Z " fill="#FACC0D" transform="translate(20.9375,5.75)"/>
<path d="M0 0 C3.63 0 7.26 0 11 0 C11 0.66 11 1.32 11 2 C11.66 2.33 12.32 2.66 13 3 C13 2.34 13 1.68 13 1 C15 1 15 1 16.625 2.5 C17.305625 3.2425 17.305625 3.2425 18 4 C18 3.01 18 2.02 18 1 C20.31 1.33 22.62 1.66 25 2 C25 9.92 25 17.84 25 26 C24.34 26 23.68 26 23 26 C23 20.06 23 14.12 23 8 C18.50047184 7.35721026 14.7179923 6.87256964 10.27734375 6.8671875 C9.24416016 6.86589844 8.21097656 6.86460937 7.14648438 6.86328125 C6.08751953 6.86714844 5.02855469 6.87101563 3.9375 6.875 C2.87466797 6.87113281 1.81183594 6.86726562 0.71679688 6.86328125 C-0.31509766 6.86457031 -1.34699219 6.86585938 -2.41015625 6.8671875 C-3.80439819 6.86887939 -3.80439819 6.86887939 -5.22680664 6.87060547 C-8.55628582 6.97118354 -8.55628582 6.97118354 -14 8 C-14.33 13.94 -14.66 19.88 -15 26 C-15.66 26 -16.32 26 -17 26 C-17 18.41 -17 10.82 -17 3 C-11 1 -11 1 -7 1 C-7 1.66 -7 2.32 -7 3 C-6.34 2.34 -5.68 1.68 -5 1 C-4.01 1 -3.02 1 -2 1 C-2 1.66 -2 2.32 -2 3 C-1.34 2.67 -0.68 2.34 0 2 C0 1.34 0 0.68 0 0 Z " fill="#0956A1" transform="translate(17,0)"/>
<path d="M0 0 C1.32 0 2.64 0 4 0 C4.33 0.66 4.66 1.32 5 2 C5.33 1.34 5.66 0.68 6 0 C11.61 0 17.22 0 23 0 C23 3.3 23 6.6 23 10 C21.02 10 19.04 10 17 10 C17 7.69 17 5.38 17 3 C16.34 3 15.68 3 15 3 C15 5.31 15 7.62 15 10 C13.68 10 12.36 10 11 10 C11 7.69 11 5.38 11 3 C10.34 3 9.68 3 9 3 C9 5.31 9 7.62 9 10 C8.2575 9.814375 7.515 9.62875 6.75 9.4375 C3.77159084 8.77947289 3.77159084 8.77947289 0 10 C0 6.7 0 3.4 0 0 Z " fill="#000000" transform="translate(142,10)"/>
<path d="M0 0 C1.22203125 0.09925781 2.4440625 0.19851562 3.703125 0.30078125 C6.75 0.6875 6.75 0.6875 8.75 1.6875 C8.75 3.3375 8.75 4.9875 8.75 6.6875 C5.78 7.3475 2.81 8.0075 -0.25 8.6875 C-0.25 8.0275 -0.25 7.3675 -0.25 6.6875 C-1.57 6.6875 -2.89 6.6875 -4.25 6.6875 C-4.25 7.3475 -4.25 8.0075 -4.25 8.6875 C-5.57 8.6875 -6.89 8.6875 -8.25 8.6875 C-7.59 6.7075 -6.93 4.7275 -6.25 2.6875 C-7.9 2.6875 -9.55 2.6875 -11.25 2.6875 C-11.25 4.3375 -11.25 5.9875 -11.25 7.6875 C-10.59 8.0175 -9.93 8.3475 -9.25 8.6875 C-9.91 8.6875 -10.57 8.6875 -11.25 8.6875 C-11.25 15.6175 -11.25 22.5475 -11.25 29.6875 C-11.58 29.6875 -11.91 29.6875 -12.25 29.6875 C-13.37998844 20.34491704 -13.34908936 11.07896903 -13.25 1.6875 C-8.55790909 -0.19077565 -5.01673554 -0.44296707 0 0 Z " fill="#FED010" transform="translate(16.25,6.3125)"/>
<path d="M0 0 C1.2065625 0.0309375 1.2065625 0.0309375 2.4375 0.0625 C2.7675 0.7225 3.0975 1.3825 3.4375 2.0625 C8.08336892 1.57765724 8.08336892 1.57765724 12.4375 0.0625 C12.7675 0.3925 13.0975 0.7225 13.4375 1.0625 C13.4375 0.7325 13.4375 0.4025 13.4375 0.0625 C15.4175 0.0625 17.3975 0.0625 19.4375 0.0625 C19.7675 0.7225 20.0975 1.3825 20.4375 2.0625 C23.0775 2.0625 25.7175 2.0625 28.4375 2.0625 C28.7675 1.4025 29.0975 0.7425 29.4375 0.0625 C29.4375 2.3725 29.4375 4.6825 29.4375 7.0625 C24.89852295 7.08715392 20.35958457 7.10533789 15.82055664 7.11743164 C14.27530234 7.1224714 12.73005284 7.1293032 11.18481445 7.13793945 C8.96824971 7.15002076 6.75174782 7.15573173 4.53515625 7.16015625 C3.49295677 7.16789818 3.49295677 7.16789818 2.42970276 7.17579651 C0.7652067 7.17599277 -0.89915499 7.12439129 -2.5625 7.0625 C-3.5625 6.0625 -3.5625 6.0625 -3.6875 3.5625 C-3.51717518 0.15600356 -3.41884482 0.08338646 0 0 Z M-0.5625 1.0625 C-0.8925 2.3825 -1.2225 3.7025 -1.5625 5.0625 C-0.5725 5.5575 -0.5725 5.5575 0.4375 6.0625 C0.4375 5.4025 0.4375 4.7425 0.4375 4.0625 C1.0975 3.7325 1.7575 3.4025 2.4375 3.0625 C1.7775 3.0625 1.1175 3.0625 0.4375 3.0625 C0.1075 2.4025 -0.2225 1.7425 -0.5625 1.0625 Z M12.4375 3.0625 C13.4375 6.0625 13.4375 6.0625 13.4375 6.0625 Z " fill="#6B6B6B" transform="translate(208.5625,39.9375)"/>
<path d="M0 0 C8.25 0 16.5 0 25 0 C25 0.66 25 1.32 25 2 C25.66 2.33 26.32 2.66 27 3 C26.34 3 25.68 3 25 3 C24.67 4.32 24.34 5.64 24 7 C15.75 7 7.5 7 -1 7 C-0.01 5.68 0.98 4.36 2 3 C1.34 2.67 0.68 2.34 0 2 C0 1.34 0 0.68 0 0 Z M7 1 C8 3 8 3 8 3 Z M12 1 C13 3 13 3 13 3 Z M17 1 C18 3 18 3 18 3 Z M22 2 C23 6 23 6 23 6 Z M4 3 C3.67 3.99 3.34 4.98 3 6 C3.66 6 4.32 6 5 6 C4.67 5.01 4.34 4.02 4 3 Z " fill="#6B6B6B" transform="translate(155,40)"/>
<path d="M0 0 C0.33 0 0.66 0 1 0 C1.03440186 0.64960693 1.06880371 1.29921387 1.10424805 1.96850586 C1.27577455 4.95998118 1.48140531 7.94821507 1.6875 10.9375 C1.74099609 11.95908203 1.79449219 12.98066406 1.84960938 14.03320312 C2.52972304 23.28866295 5.31554475 29.55427529 12 36 C12.75 38.25 12.75 38.25 13 40 C7.52805334 38.22966431 3.50848886 35.13269114 0.1875 30.4375 C-1.82894274 26.29848596 -2.11715276 22.84083193 -2.0625 18.25 C-2.05347656 17.26515625 -2.04445312 16.2803125 -2.03515625 15.265625 C-2.02355469 14.51796875 -2.01195312 13.7703125 -2 13 C-1.34 13 -0.68 13 0 13 C0 8.71 0 4.42 0 0 Z " fill="#D2C721" transform="translate(2,13)"/>
<path d="M0 0 C1.18613892 0.00785522 1.18613892 0.00785522 2.39624023 0.01586914 C3.67724609 0.02070312 3.67724609 0.02070312 4.98413086 0.02563477 C5.88196289 0.03401367 6.77979492 0.04239258 7.70483398 0.05102539 C8.6065332 0.05553711 9.50823242 0.06004883 10.43725586 0.06469727 C12.67234712 0.07652315 14.90730835 0.09300319 17.14233398 0.11352539 C18.07657043 3.12384283 18.18683309 3.98002807 17.14233398 7.11352539 C9.88233398 7.11352539 2.62233398 7.11352539 -4.85766602 7.11352539 C-3.20766602 5.46352539 -1.55766602 3.81352539 0.14233398 2.11352539 C-0.84766602 1.78352539 -1.83766602 1.45352539 -2.85766602 1.11352539 C-1.85766602 0.11352539 -1.85766602 0.11352539 0 0 Z M15.14233398 1.11352539 C16.14233398 3.11352539 16.14233398 3.11352539 16.14233398 3.11352539 Z M5.14233398 2.11352539 C6.14233398 6.11352539 6.14233398 6.11352539 6.14233398 6.11352539 Z M10.14233398 2.11352539 C11.14233398 6.11352539 11.14233398 6.11352539 11.14233398 6.11352539 Z M2.14233398 3.11352539 C1.15233398 4.59852539 1.15233398 4.59852539 0.14233398 6.11352539 C1.13233398 6.11352539 2.12233398 6.11352539 3.14233398 6.11352539 C2.81233398 5.12352539 2.48233398 4.13352539 2.14233398 3.11352539 Z M15.14233398 4.11352539 C16.14233398 6.11352539 16.14233398 6.11352539 16.14233398 6.11352539 Z " fill="#6B6B6B" transform="translate(107.857666015625,39.886474609375)"/>
<path d="M0 0 C0.99 0 1.98 0 3 0 C4.03266468 14.68678657 4.03266468 14.68678657 0.375 19.6875 C-2.4245791 22.73253983 -5.37362989 25.02197994 -9 27 C-9.66 27 -10.32 27 -11 27 C-9.69460548 21.89709416 -7.66591273 19.66591273 -4 16 C-1.16448237 10.73403868 -0.38590097 5.86835616 0 0 Z " fill="#D1C91E" transform="translate(39,26)"/>
<path d="M0 0 C1.65 0 3.3 0 5 0 C4.49396008 2.16874252 4.00016187 3.99967627 3 6 C4.32 6 5.64 6 7 6 C7 5.34 7 4.68 7 4 C8.32 4 9.64 4 11 4 C11 4.66 11 5.32 11 6 C14.63 6 18.26 6 22 6 C21.67 4.35 21.34 2.7 21 1 C22.65 0.67 24.3 0.34 26 0 C25.67 1.98 25.34 3.96 25 6 C25.66 6 26.32 6 27 6 C27 4.02 27 2.04 27 0 C28.875 0.125 28.875 0.125 31 1 C31.66 2.98 32.32 4.96 33 7 C22.11 7 11.22 7 0 7 C0 4.69 0 2.38 0 0 Z " fill="#FEE581" transform="translate(5,9)"/>
<path d="M0 0 C4.62 0 9.24 0 14 0 C14 1.65 14 3.3 14 5 C13.01 5.33 12.02 5.66 11 6 C11.33 7.65 11.66 9.3 12 11 C11.34 11 10.68 11 10 11 C9.67 10.34 9.34 9.68 9 9 C8.01 9.33 7.02 9.66 6 10 C5.875 4.25 5.875 4.25 7 2 C5.35 2 3.7 2 2 2 C2 2.66 2 3.32 2 4 C2.99 4 3.98 4 5 4 C5 4.66 5 5.32 5 6 C3.68 6 2.36 6 1 6 C1.66 7.32 2.32 8.64 3 10 C1.35 10 -0.3 10 -2 10 C-2.19546065 5.69986566 -1.9955516 3.99110319 0 0 Z " fill="#0C539F" transform="translate(10,17)"/>
<path d="M0 0 C6.27 0 12.54 0 19 0 C19.33 0.66 19.66 1.32 20 2 C18.35 2 16.7 2 15 2 C15 2.66 15 3.32 15 4 C15.66 4.33 16.32 4.66 17 5 C16.67 5.99 16.34 6.98 16 8 C16.99 8 17.98 8 19 8 C19.33 6.68 19.66 5.36 20 4 C20.36637589 10.35051546 20.36637589 10.35051546 18.625 13.4375 C17 15 17 15 15 15 C12.875 13.4375 12.875 13.4375 11 11 C10.6875 7.3125 10.6875 7.3125 11 4 C11.33 3.67 11.66 3.34 12 3 C8.04 2.67 4.08 2.34 0 2 C0 1.34 0 0.68 0 0 Z " fill="#B7C3CD" transform="translate(6,30)"/>
<path d="M0 0 C6.27 0 12.54 0 19 0 C19 2.31 19 4.62 19 7 C18.34 7 17.68 7 17 7 C17 5.68 17 4.36 17 3 C16.34 3 15.68 3 15 3 C15 4.32 15 5.64 15 7 C10.05 7 5.1 7 0 7 C0 4.69 0 2.38 0 0 Z M2 1 C3 4 3 4 3 4 Z M7 1 C7 2.65 7 4.3 7 6 C7.33 6 7.66 6 8 6 C8 4.35 8 2.7 8 1 C7.67 1 7.34 1 7 1 Z M12 1 C12 2.65 12 4.3 12 6 C12.33 6 12.66 6 13 6 C13 4.35 13 2.7 13 1 C12.67 1 12.34 1 12 1 Z " fill="#6B6B6B" transform="translate(83,40)"/>
<path d="M0 0 C2.31 0.33 4.62 0.66 7 1 C7 8.92 7 16.84 7 25 C6.34 25 5.68 25 5 25 C5 19.06 5 13.12 5 7 C-0.71094255 6.16850461 -0.71094255 6.16850461 -6.40234375 5.68359375 C-7.14677734 5.64169922 -7.89121094 5.59980469 -8.65820312 5.55664062 C-9.41037109 5.51732422 -10.16253906 5.47800781 -10.9375 5.4375 C-11.71673828 5.39431641 -12.49597656 5.35113281 -13.29882812 5.30664062 C-15.19907117 5.20171923 -17.09951669 5.1004755 -19 5 C-19 4.67 -19 4.34 -19 4 C-17.41058594 3.90912109 -17.41058594 3.90912109 -15.7890625 3.81640625 C-14.40102779 3.73199873 -13.01300768 3.64735083 -11.625 3.5625 C-10.92632812 3.52318359 -10.22765625 3.48386719 -9.5078125 3.44335938 C-5.62639508 3.25719866 -5.62639508 3.25719866 -2 2 C-1.34 2.33 -0.68 2.66 0 3 C0 2.01 0 1.02 0 0 Z " fill="#206194" transform="translate(35,1)"/>
<path d="M0 0 C0.66 0 1.32 0 2 0 C2 1.65 2 3.3 2 5 C3.32 4.67 4.64 4.34 6 4 C5.01 4 4.02 4 3 4 C3 2.68 3 1.36 3 0 C6.96 0 10.92 0 15 0 C16 5 16 5 15 7 C10.05 7 5.1 7 0 7 C0 4.69 0 2.38 0 0 Z M5 1 C5 1.66 5 2.32 5 3 C5.99 2.67 6.98 2.34 8 2 C7.01 1.67 6.02 1.34 5 1 Z M11 1 C10.67 1.99 10.34 2.98 10 4 C10.33 4.66 10.66 5.32 11 6 C11.66 6 12.32 6 13 6 C13.33 5.01 13.66 4.02 14 3 C13.67 2.34 13.34 1.68 13 1 C12.34 1 11.68 1 11 1 Z " fill="#6B6B6B" transform="translate(65,40)"/>
<path d="M0 0 C2.31243792 -0.02685412 4.6249627 -0.04632841 6.9375 -0.0625 C8.22527344 -0.07410156 9.51304687 -0.08570313 10.83984375 -0.09765625 C14 0 14 0 15 1 C15.125 3.5 15.125 3.5 15 6 C14 7 14 7 10.83984375 7.09765625 C8.90818359 7.08025391 8.90818359 7.08025391 6.9375 7.0625 C5.64714844 7.05347656 4.35679687 7.04445313 3.02734375 7.03515625 C2.02832031 7.02355469 1.02929688 7.01195312 0 7 C0 4.69 0 2.38 0 0 Z M5 1 C5 1.66 5 2.32 5 3 C5.99 2.67 6.98 2.34 8 2 C7.01 1.67 6.02 1.34 5 1 Z M11 1 C10.67 2.32 10.34 3.64 10 5 C10.99 5 11.98 5 13 5 C12.67 3.68 12.34 2.36 12 1 C11.67 1 11.34 1 11 1 Z M2 3 C2 3.66 2 4.32 2 5 C3.32 5.33 4.64 5.66 6 6 C6 5.34 6 4.68 6 4 C4.68 3.67 3.36 3.34 2 3 Z " fill="#6B6B6B" transform="translate(137,40)"/>
<path d="M0 0 C1.65 0 3.3 0 5 0 C5 3.63 5 7.26 5 11 C4.01 11 3.02 11 2 11 C2 10.34 2 9.68 2 9 C-0.31 9.33 -2.62 9.66 -5 10 C-4.38101172 5.97657617 -2.55460568 3.12229583 0 0 Z " fill="#2060A7" transform="translate(29,17)"/>
<path d="M0 0 C1.24007813 0.09925781 2.48015625 0.19851562 3.7578125 0.30078125 C6.875 0.6875 6.875 0.6875 8.875 1.6875 C8.875 3.3375 8.875 4.9875 8.875 6.6875 C5.905 7.3475 2.935 8.0075 -0.125 8.6875 C-0.455 6.3775 -0.785 4.0675 -1.125 1.6875 C-4.425 1.6875 -7.725 1.6875 -11.125 1.6875 C-6.66688023 -0.54155988 -4.85973655 -0.42104189 0 0 Z " fill="#EBC411" transform="translate(16.125,6.3125)"/>
<path d="M0 0 C1.74796875 -0.02126953 1.74796875 -0.02126953 3.53125 -0.04296875 C6.5 0.1875 6.5 0.1875 8.5 2.1875 C5.10692501 4.91851158 3.29898191 6.1875 -1.125 6.1875 C-4.7180525 5.12289185 -6.17704405 4.06796538 -8.5 1.1875 C-5.65161879 -0.2366906 -3.17212092 0.01754492 0 0 Z " fill="#FCCA07" transform="translate(21.5,47.8125)"/>
<path d="M0 0 C3.63 0 7.26 0 11 0 C11 0.66 11 1.32 11 2 C11.66 2.33 12.32 2.66 13 3 C13 2.34 13 1.68 13 1 C13.66 1 14.32 1 15 1 C14.67 2.32 14.34 3.64 14 5 C8.06 4.67 2.12 4.34 -4 4 C-4.33 3.01 -4.66 2.02 -5 1 C-4.01 1 -3.02 1 -2 1 C-2 1.66 -2 2.32 -2 3 C-1.34 2.67 -0.68 2.34 0 2 C0 1.34 0 0.68 0 0 Z " fill="#14385B" transform="translate(17,0)"/>
<path d="M0 0 C0.66 0 1.32 0 2 0 C2.54786109 5.11337022 2.43032186 8.01710617 -0.625 12.25 C-3.42047138 15.6151646 -6.16521728 17.90830033 -10 20 C-10.66 20 -11.32 20 -12 20 C-10.86280581 16.58841744 -9.95657056 15.88145399 -7 14 C-6.34 14 -5.68 14 -5 14 C-4.71125 13.4225 -4.4225 12.845 -4.125 12.25 C-3.42896709 10.85793419 -2.70481337 9.47908242 -1.9375 8.125 C-0.7614358 5.45925448 -0.39213842 2.87568173 0 0 Z " fill="#185A9C" transform="translate(40,33)"/>
<path d="M0 0 C0.66 0 1.32 0 2 0 C2.30292969 0.81984375 2.60585938 1.6396875 2.91796875 2.484375 C3.33691406 3.56203125 3.75585938 4.6396875 4.1875 5.75 C4.59355469 6.81734375 4.99960938 7.8846875 5.41796875 8.984375 C7.72074443 13.37386346 10.95371917 15.30247945 15 18 C15 18.66 15 19.32 15 20 C9.5897549 18.24962659 5.68484861 15.14963443 2.1875 10.6875 C0.59870323 7.09180205 0.33163915 3.91334199 0 0 Z " fill="#0853A4" transform="translate(0,33)"/>
<path d="M0 0 C3.3 0 6.6 0 10 0 C10 2.31 10 4.62 10 7 C6.04 7 2.08 7 -2 7 C-0.68 6.01 0.64 5.02 2 4 C2 3.34 2 2.68 2 2 C1.34 2 0.68 2 0 2 C0 1.34 0 0.68 0 0 Z M7 1 C7 2.65 7 4.3 7 6 C7.33 6 7.66 6 8 6 C8 4.35 8 2.7 8 1 C7.67 1 7.34 1 7 1 Z M4 4 C3.67 4.66 3.34 5.32 3 6 C3.66 6 4.32 6 5 6 C4.67 5.34 4.34 4.68 4 4 Z " fill="#6B6B6B" transform="translate(182,40)"/>
<path d="M0 0 C3.63 0 7.26 0 11 0 C11.33 0.66 11.66 1.32 12 2 C11.34 2 10.68 2 10 2 C9.34 3.98 8.68 5.96 8 8 C7.01 8 6.02 8 5 8 C4.67 7.34 4.34 6.68 4 6 C3.01 6 2.02 6 1 6 C0.67 4.02 0.34 2.04 0 0 Z " fill="#F8FAF5" transform="translate(21,32)"/>
<path d="M0 0 C4.62 0 9.24 0 14 0 C14 0.33 14 0.66 14 1 C8.06 1.495 8.06 1.495 2 2 C2 2.66 2 3.32 2 4 C2.99 4 3.98 4 5 4 C5 4.66 5 5.32 5 6 C3.68 6 2.36 6 1 6 C1.66 7.32 2.32 8.64 3 10 C1.35 10 -0.3 10 -2 10 C-2.19546065 5.69986566 -1.9955516 3.99110319 0 0 Z " fill="#165CA4" transform="translate(10,17)"/>
<path d="M0 0 C0.99 0 1.98 0 3 0 C3.33 0.66 3.66 1.32 4 2 C5.65 2 7.3 2 9 2 C9 3.65 9 5.3 9 7 C5.33333333 7 1.66666667 7 -2 7 C-1.34 4.69 -0.68 2.38 0 0 Z " fill="#6B6B6B" transform="translate(53,40)"/>
<path d="M0 0 C0.33 0 0.66 0 1 0 C0.51392405 7.29113924 0.51392405 7.29113924 -1.8125 10.5 C-4 12 -4 12 -8 12 C-7.61736522 9.22589786 -7.28659286 8.23112328 -5.0625 6.4375 C-4.381875 5.963125 -3.70125 5.48875 -3 5 C-1.06201737 2.22739701 -1.06201737 2.22739701 0 0 Z " fill="#AFD34E" transform="translate(31,34)"/>
<path d="M0 0 C8.25 0 16.5 0 25 0 C25 0.33 25 0.66 25 1 C23.02 1 21.04 1 19 1 C18.34 2.65 17.68 4.3 17 6 C15 5 15 5 14 2 C7.07 1.505 7.07 1.505 0 1 C0 0.67 0 0.34 0 0 Z " fill="#E9F1F9" transform="translate(10,16)"/>
<path d="M0 0 C1.65 0 3.3 0 5 0 C5 2.97 5 5.94 5 9 C1.7 9 -1.6 9 -5 9 C-4.67 8.34 -4.34 7.68 -4 7 C-2.68 7 -1.36 7 0 7 C-0.33 6.01 -0.66 5.02 -1 4 C0.32 4 1.64 4 3 4 C3 3.34 3 2.68 3 2 C2.01 2 1.02 2 0 2 C0 1.34 0 0.68 0 0 Z " fill="#B0C8E0" transform="translate(12,19)"/>
<path d="M0 0 C1.32 0 2.64 0 4 0 C4 3.3 4 6.6 4 10 C2.68 10 1.36 10 0 10 C0 6.7 0 3.4 0 0 Z " fill="#F90000" transform="translate(137,10)"/>
<path d="M0 0 C1.32 0 2.64 0 4 0 C4 1.65 4 3.3 4 5 C1.69 5.66 -0.62 6.32 -3 7 C-3 5.35 -3 3.7 -3 2 C-2.01 2 -1.02 2 0 2 C0 1.34 0 0.68 0 0 Z " fill="#AE6C40" transform="translate(21,8)"/>
<path d="M0 0 C0.33 0 0.66 0 1 0 C1 3.63 1 7.26 1 11 C0.01 11 -0.98 11 -2 11 C-2 10.01 -2 9.02 -2 8 C-2.66 8 -3.32 8 -4 8 C-3.67 6.02 -3.34 4.04 -3 2 C-2.34 2 -1.68 2 -1 2 C-0.67 1.34 -0.34 0.68 0 0 Z " fill="#5A8BBE" transform="translate(33,17)"/>
<path d="M0 0 C1.32 0 2.64 0 4 0 C4.33 2.31 4.66 4.62 5 7 C3.02 7 1.04 7 -1 7 C-0.67 4.69 -0.34 2.38 0 0 Z " fill="#6B6B6B" transform="translate(129,40)"/>
<path d="M0 0 C1.65 0 3.3 0 5 0 C5 2.31 5 4.62 5 7 C3.35 7 1.7 7 0 7 C0 4.69 0 2.38 0 0 Z M2 1 C2 2.65 2 4.3 2 6 C2.33 6 2.66 6 3 6 C3 4.35 3 2.7 3 1 C2.67 1 2.34 1 2 1 Z " fill="#6B6B6B" transform="translate(197,40)"/>
<path d="M0 0 C1.65 0 3.3 0 5 0 C4.49396008 2.16874252 4.00016187 3.99967627 3 6 C3.66 6.33 4.32 6.66 5 7 C3.35 7 1.7 7 0 7 C0 4.69 0 2.38 0 0 Z " fill="#FFDD62" transform="translate(5,9)"/>
<path d="M0 0 C0.66 0 1.32 0 2 0 C2.66 1.98 3.32 3.96 4 6 C2.35 5.67 0.7 5.34 -1 5 C-1 5.66 -1 6.32 -1 7 C-2.32 7 -3.64 7 -5 7 C-4.34 5.68 -3.68 4.36 -3 3 C-2.34 3 -1.68 3 -1 3 C-0.67 2.01 -0.34 1.02 0 0 Z " fill="#FFD435" transform="translate(13,8)"/>
<path d="M0 0 C0 0.99 0 1.98 0 3 C-3.3 3.33 -6.6 3.66 -10 4 C-10 3.34 -10 2.68 -10 2 C-6.38026598 0.68373308 -3.90432869 0 0 0 Z " fill="#212227" transform="translate(10,1)"/>
<path d="M0 0 C-0.33 0.66 -0.66 1.32 -1 2 C-3.29141286 2.05384521 -5.58318188 2.09272087 -7.875 2.125 C-9.78925781 2.15980469 -9.78925781 2.15980469 -11.7421875 2.1953125 C-15 2 -15 2 -17 0 C-10.58604177 -1.93012632 -6.38700473 -2.09029246 0 0 Z " fill="#EBE07A" transform="translate(29,47)"/>
<path d="M0 0 C0.99 0 1.98 0 3 0 C3.33 1.32 3.66 2.64 4 4 C3.34 4 2.68 4 2 4 C2.33 5.65 2.66 7.3 3 9 C2.34 9 1.68 9 1 9 C-0.61949011 6.42786866 -1.04408751 5.32330841 -0.625 2.25 C-0.41875 1.5075 -0.2125 0.765 0 0 Z " fill="#4980B8" transform="translate(19,19)"/>
<path d="M0 0 C0.33 0 0.66 0 1 0 C1.3125 2.1875 1.3125 2.1875 1 5 C-1.47447864 7.87574545 -3.8442602 9.89617347 -7 12 C-7 9 -7 9 -4.625 6.5625 C-3.75875 5.716875 -2.8925 4.87125 -2 4 C-0.70480005 1.83379456 -0.70480005 1.83379456 0 0 Z " fill="#F0CB21" transform="translate(37,38)"/>
<path d="M0 0 C3.3 0.33 6.6 0.66 10 1 C10 1.66 10 2.32 10 3 C6.7 3.33 3.4 3.66 0 4 C0 2.68 0 1.36 0 0 Z " fill="#C3C2C3" transform="translate(27,29)"/>
<path d="M0 0 C0.86625 1.11375 0.86625 1.11375 1.75 2.25 C3.72253526 4.66087643 5.76044282 6.84042701 8 9 C7.01 9.495 7.01 9.495 6 10 C1.77202073 6.91709845 1.77202073 6.91709845 0 5 C-0.375 2.1875 -0.375 2.1875 0 0 Z " fill="#E2C322" transform="translate(6,40)"/>
<path d="M0 0 C0.66 0 1.32 0 2 0 C2.99 2.97 3.98 5.94 5 9 C3.68 8.67 2.36 8.34 1 8 C0.67 5.36 0.34 2.72 0 0 Z " fill="#175D99" transform="translate(0,33)"/>
<path d="M0 0 C0.66 0.99 1.32 1.98 2 3 C1.125 6.1875 1.125 6.1875 0 9 C0.66 9.33 1.32 9.66 2 10 C0.68 10 -0.64 10 -2 10 C-2.33 8.35 -2.66 6.7 -3 5 C-2.34 4.67 -1.68 4.34 -1 4 C-0.34786708 1.97536745 -0.34786708 1.97536745 0 0 Z " fill="#CADAEA" transform="translate(24,18)"/>
<path d="M0 0 C2.31 0.33 4.62 0.66 7 1 C6.67 2.32 6.34 3.64 6 5 C4.02 4.34 2.04 3.68 0 3 C0 2.01 0 1.02 0 0 Z " fill="#212125" transform="translate(35,1)"/>
<path d="M0 0 C2.64 0 5.28 0 8 0 C7.34 1.65 6.68 3.3 6 5 C5.34 5 4.68 5 4 5 C2.61767557 3.37373596 1.28062485 1.7074998 0 0 Z " fill="#F1F7EB" transform="translate(17,40)"/>
<path d="M0 0 C0.66 0 1.32 0 2 0 C2.29296875 5.95703125 2.29296875 5.95703125 2 8 C1.01 8.99 0.02 9.98 -1 11 C-0.67 7.37 -0.34 3.74 0 0 Z " fill="#0B56A1" transform="translate(40,33)"/>
<path d="M0 0 C1.65 0 3.3 0 5 0 C4.67 1.98 4.34 3.96 4 6 C3.01 6 2.02 6 1 6 C0.67 4.02 0.34 2.04 0 0 Z " fill="#E5EDF4" transform="translate(21,32)"/>
<path d="M0 0 C1.32 0.33 2.64 0.66 4 1 C3.67 2.65 3.34 4.3 3 6 C2.01 5.67 1.02 5.34 0 5 C0 3.35 0 1.7 0 0 Z " fill="#FFEDAC" transform="translate(32,9)"/>
<path d="M0 0 C1.65 0.33 3.3 0.66 5 1 C4.01 1.495 4.01 1.495 3 2 C2.34786708 4.02463255 2.34786708 4.02463255 2 6 C2 5.01 2 4.02 2 3 C1.01 3 0.02 3 -1 3 C-0.67 2.01 -0.34 1.02 0 0 Z " fill="#F3CC1E" transform="translate(34,7)"/>
<path d="M0 0 C0.66 0 1.32 0 2 0 C2 2.31 2 4.62 2 7 C1.34 7 0.68 7 0 7 C-0.38133299 5.0085944 -0.71325582 3.00720923 -1 1 C-0.67 0.67 -0.34 0.34 0 0 Z " fill="#6B6B6B" transform="translate(194,40)"/>
<path d="M0 0 C2 1 2 1 2 1 Z " fill="#6B6B6B" transform="translate(103,42)"/>
</svg>
